<svg xmlns="http://www.w3.org/2000/svg" width="1360" height="337" viewBox="0 0 1360 337" fill="none">
  <g fill="#F7C0AB" fill-rule="evenodd">
   <path
      d="M50.688 281.32C42.048 281.32 34.08 279.976 26.784 277.288C19.68 274.792 12.768 270.664 6.048 264.904V253.096C18.144 266.344 33.216 272.968 51.264 272.968C67.776 272.968 80.64 267.88 89.856 257.704C99.072 247.336 103.68 232.072 103.68 211.912V69.352H50.4V61H113.184V210.76C113.184 233.8 107.616 251.368 96.48 263.464C85.344 275.368 70.08 281.32 50.688 281.32ZM158.308 61H167.812C190.468 61 208.132 67.048 220.804 79.144C233.476 91.048 239.812 107.08 239.812 127.24C239.812 141.256 236.74 153.736 230.596 164.68C224.452 175.432 216.1 183.784 205.54 189.736C194.98 195.496 183.172 198.376 170.116 198.376H167.812V277H158.308V61ZM170.692 190.024C188.164 190.024 202.468 184.648 213.604 173.896C224.74 162.952 230.308 147.592 230.308 127.816C230.308 109 225.028 94.6 214.468 84.616C204.1 74.44 189.316 69.352 170.116 69.352H167.812V190.024H170.692ZM257.231 103.336C268.559 98.152 274.223 89.32 274.223 76.84V43.72H284.591V76.84C284.591 85.864 282.095 93.64 277.103 100.168C272.111 106.504 265.487 110.92 257.231 113.416V103.336ZM362.849 280.168C353.633 280.168 345.473 278.632 338.369 275.56C331.265 272.296 326.177 268.168 323.105 263.176V247.912C326.753 256.168 331.745 262.312 338.081 266.344C344.417 270.184 352.481 272.104 362.273 272.104C371.681 272.104 379.265 269.224 385.025 263.464C390.785 257.512 393.665 249.928 393.665 240.712C393.665 232.84 392.033 226.792 388.769 222.568C385.505 218.152 380.225 213.736 372.929 209.32L361.985 202.984C354.113 198.184 348.161 194.44 344.129 191.752C340.289 188.872 337.217 185.704 334.913 182.248C332.609 178.6 331.457 174.376 331.457 169.576C331.457 161.896 334.145 155.752 339.521 151.144C344.897 146.536 351.905 144.232 360.545 144.232C371.105 144.232 379.937 146.632 387.041 151.432V164.104C381.089 156.232 372.545 152.296 361.409 152.296C355.265 152.296 350.273 153.832 346.433 156.904C342.593 159.976 340.673 163.912 340.673 168.712C340.673 172.936 341.825 176.68 344.129 179.944C346.433 183.016 349.601 185.896 353.633 188.584C357.857 191.272 364.769 195.304 374.369 200.68C384.161 206.248 391.361 212.008 395.969 217.96C400.577 223.72 402.881 231.304 402.881 240.712C402.881 252.616 398.945 262.216 391.073 269.512C383.393 276.616 373.985 280.168 362.849 280.168ZM623.311 277L508.975 156.904V277H499.471V61H508.975V139.336L599.119 61H612.655L511.567 147.4L635.983 277H623.311ZM672.314 117.736C669.626 117.736 667.226 116.776 665.114 114.856C663.194 112.936 662.234 110.536 662.234 107.656C662.234 104.968 663.194 102.664 665.114 100.744C667.226 98.824 669.626 97.864 672.314 97.864C675.002 97.864 677.306 98.824 679.226 100.744C681.338 102.664 682.394 104.968 682.394 107.656C682.394 110.536 681.338 112.936 679.226 114.856C677.306 116.776 675.002 117.736 672.314 117.736ZM667.706 147.4H676.922V277H667.706V147.4ZM766.231 278.728C752.023 278.728 740.215 274.408 730.807 265.768C721.591 257.128 716.983 245.224 716.983 230.056V95.272H726.199V147.4H765.943V155.464H726.199V230.056C726.199 242.728 729.943 252.712 737.431 260.008C745.111 267.112 754.711 270.664 766.231 270.664V278.728ZM851.513 280.744C839.033 280.744 827.513 277.768 816.953 271.816C806.585 265.864 798.329 257.704 792.185 247.336C786.041 236.968 782.969 225.256 782.969 212.2C782.969 200.104 786.041 188.968 792.185 178.792C798.329 168.424 806.681 160.168 817.241 154.024C827.993 147.88 839.801 144.808 852.665 144.808C863.417 144.808 872.633 146.536 880.313 149.992C887.993 153.448 895.481 158.824 902.777 166.12V181.672C896.441 172.264 889.337 165.16 881.465 160.36C873.785 155.368 864.185 152.872 852.665 152.872C842.105 152.872 832.121 155.656 822.713 161.224C813.497 166.6 806.105 173.896 800.537 183.112C794.969 192.328 792.185 202.216 792.185 212.776C792.185 224.296 794.873 234.664 800.249 243.88C805.625 252.904 812.825 260.008 821.849 265.192C831.065 270.184 840.953 272.68 851.513 272.68C873.017 272.68 890.105 262.984 902.777 243.592V259.144C895.865 266.44 888.185 271.912 879.737 275.56C871.481 279.016 862.073 280.744 851.513 280.744ZM928.269 61H937.485V174.184C941.517 165.544 948.333 158.44 957.933 152.872C967.725 147.112 977.613 144.232 987.597 144.232C1005.84 144.232 1019.85 149.224 1029.65 159.208C1039.63 169.192 1044.62 183.304 1044.62 201.544V277H1035.41V201.544C1035.41 185.8 1031.18 173.704 1022.73 165.256C1014.48 156.616 1002.77 152.296 987.597 152.296C978.381 152.296 969.933 154.504 962.253 158.92C954.573 163.144 948.525 169.096 944.109 176.776C939.693 184.264 937.485 192.52 937.485 201.544V277H928.269V61ZM1144.06 272.392C1154.04 272.392 1163.55 269.8 1172.57 264.616C1181.6 259.432 1189.08 252.328 1195.04 243.304V257.992C1187.93 265.864 1180.16 271.624 1171.71 275.272C1163.26 278.728 1153.66 280.456 1142.91 280.456C1131 280.456 1119.77 277.288 1109.21 270.952C1098.84 264.616 1090.49 256.168 1084.16 245.608C1078.01 235.048 1074.94 223.816 1074.94 211.912C1074.94 199.048 1078.01 187.528 1084.16 177.352C1090.3 166.984 1098.65 158.92 1109.21 153.16C1119.96 147.4 1131.87 144.52 1144.92 144.52C1164.89 144.52 1181.88 152.392 1195.9 168.136L1105.47 257.416C1111.8 262.6 1117.95 266.44 1123.9 268.936C1129.85 271.24 1136.57 272.392 1144.06 272.392ZM1084.16 211.048C1084.16 226.984 1089.44 240.616 1100 251.944L1184.38 168.136C1178.04 162.568 1171.9 158.632 1165.95 156.328C1160 153.832 1152.89 152.584 1144.64 152.584C1132.92 152.584 1122.46 155.176 1113.24 160.36C1104.22 165.352 1097.12 172.264 1091.93 181.096C1086.75 189.928 1084.16 199.912 1084.16 211.048ZM1224.71 147.4H1233.92V176.2C1238.15 166.6 1245.35 158.92 1255.52 153.16C1265.7 147.208 1276.93 144.232 1289.22 144.232C1305.15 144.232 1317.73 149.32 1326.95 159.496C1336.35 169.48 1341.06 183.496 1341.06 201.544V277H1331.84V201.544C1331.84 185.992 1328 173.896 1320.32 165.256C1312.83 156.616 1302.27 152.296 1288.64 152.296C1278.66 152.296 1269.44 154.6 1260.99 159.208C1252.74 163.624 1246.11 169.768 1241.12 177.64C1236.32 185.512 1233.92 194.44 1233.92 204.424V277H1224.71V147.4Z"
      fill="black"
    />
  </g>
</svg>
